<mxfile host="Electron" modified="2023-10-27T14:14:18.820Z" agent="Mozilla/5.0 (Windows NT 10.0; Win64; x64) AppleWebKit/537.36 (KHTML, like Gecko) draw.io/21.6.5 Chrome/114.0.5735.243 Electron/25.3.1 Safari/537.36" etag="xvq1NRf0-hS8oeljHgxM" version="21.6.5" type="device">
  <diagram name="self-signed-certificates" id="GLzYcmX06P1dWwSk5Idd">
    <mxGraphModel dx="1180" dy="682" grid="1" gridSize="10" guides="1" tooltips="1" connect="1" arrows="1" fold="1" page="1" pageScale="1" pageWidth="827" pageHeight="1169" math="0" shadow="0">
      <root>
        <mxCell id="0" />
        <mxCell id="1" parent="0" />
        <mxCell id="j_XK-KIP_RH2tpLVQoC5-4" style="edgeStyle=orthogonalEdgeStyle;rounded=0;orthogonalLoop=1;jettySize=auto;html=1;exitX=0.5;exitY=1;exitDx=0;exitDy=0;" parent="1" source="j_XK-KIP_RH2tpLVQoC5-1" target="j_XK-KIP_RH2tpLVQoC5-2" edge="1">
          <mxGeometry relative="1" as="geometry" />
        </mxCell>
        <mxCell id="j_XK-KIP_RH2tpLVQoC5-15" style="edgeStyle=orthogonalEdgeStyle;rounded=0;orthogonalLoop=1;jettySize=auto;html=1;exitX=0.5;exitY=1;exitDx=0;exitDy=0;" parent="1" source="j_XK-KIP_RH2tpLVQoC5-1" target="j_XK-KIP_RH2tpLVQoC5-12" edge="1">
          <mxGeometry relative="1" as="geometry" />
        </mxCell>
        <mxCell id="j_XK-KIP_RH2tpLVQoC5-1" value="APIM Sample&lt;br&gt;Root CA" style="rounded=0;whiteSpace=wrap;html=1;fillColor=#dae8fc;strokeColor=#6c8ebf;" parent="1" vertex="1">
          <mxGeometry x="350" y="110" width="100" height="50" as="geometry" />
        </mxCell>
        <mxCell id="j_XK-KIP_RH2tpLVQoC5-9" style="edgeStyle=orthogonalEdgeStyle;rounded=0;orthogonalLoop=1;jettySize=auto;html=1;fillColor=#ffe6cc;strokeColor=#000000;" parent="1" source="j_XK-KIP_RH2tpLVQoC5-2" target="j_XK-KIP_RH2tpLVQoC5-3" edge="1">
          <mxGeometry relative="1" as="geometry" />
        </mxCell>
        <mxCell id="j_XK-KIP_RH2tpLVQoC5-10" style="edgeStyle=orthogonalEdgeStyle;rounded=0;orthogonalLoop=1;jettySize=auto;html=1;fillColor=#ffe6cc;strokeColor=#000000;" parent="1" source="j_XK-KIP_RH2tpLVQoC5-2" target="j_XK-KIP_RH2tpLVQoC5-5" edge="1">
          <mxGeometry relative="1" as="geometry" />
        </mxCell>
        <mxCell id="j_XK-KIP_RH2tpLVQoC5-2" value="APIM Sample DEV Intermediate CA" style="rounded=0;whiteSpace=wrap;html=1;fillColor=#ffe6cc;strokeColor=#d79b00;" parent="1" vertex="1">
          <mxGeometry x="220" y="220" width="120" height="50" as="geometry" />
        </mxCell>
        <mxCell id="j_XK-KIP_RH2tpLVQoC5-3" value="Client 01" style="rounded=0;whiteSpace=wrap;html=1;fillColor=#ffe6cc;strokeColor=#d79b00;" parent="1" vertex="1">
          <mxGeometry x="180" y="320" width="90" height="50" as="geometry" />
        </mxCell>
        <mxCell id="j_XK-KIP_RH2tpLVQoC5-5" value="Client 02" style="rounded=0;whiteSpace=wrap;html=1;fillColor=#ffe6cc;strokeColor=#d79b00;" parent="1" vertex="1">
          <mxGeometry x="290" y="320" width="90" height="50" as="geometry" />
        </mxCell>
        <mxCell id="j_XK-KIP_RH2tpLVQoC5-7" value="Client 01" style="rounded=0;whiteSpace=wrap;html=1;fillColor=#fff2cc;strokeColor=#d6b656;" parent="1" vertex="1">
          <mxGeometry x="414" y="320" width="90" height="50" as="geometry" />
        </mxCell>
        <mxCell id="j_XK-KIP_RH2tpLVQoC5-8" value="Client 02" style="rounded=0;whiteSpace=wrap;html=1;fillColor=#fff2cc;strokeColor=#d6b656;" parent="1" vertex="1">
          <mxGeometry x="520" y="320" width="90" height="50" as="geometry" />
        </mxCell>
        <mxCell id="j_XK-KIP_RH2tpLVQoC5-13" style="edgeStyle=orthogonalEdgeStyle;rounded=0;orthogonalLoop=1;jettySize=auto;html=1;fillColor=#fff2cc;strokeColor=#000000;" parent="1" source="j_XK-KIP_RH2tpLVQoC5-12" target="j_XK-KIP_RH2tpLVQoC5-7" edge="1">
          <mxGeometry relative="1" as="geometry" />
        </mxCell>
        <mxCell id="j_XK-KIP_RH2tpLVQoC5-14" style="edgeStyle=orthogonalEdgeStyle;rounded=0;orthogonalLoop=1;jettySize=auto;html=1;fillColor=#fff2cc;strokeColor=#000000;" parent="1" source="j_XK-KIP_RH2tpLVQoC5-12" target="j_XK-KIP_RH2tpLVQoC5-8" edge="1">
          <mxGeometry relative="1" as="geometry" />
        </mxCell>
        <mxCell id="j_XK-KIP_RH2tpLVQoC5-12" value="APIM Sample TST Intermediate CA" style="rounded=0;whiteSpace=wrap;html=1;fillColor=#fff2cc;strokeColor=#d6b656;" parent="1" vertex="1">
          <mxGeometry x="450" y="220" width="120" height="50" as="geometry" />
        </mxCell>
      </root>
    </mxGraphModel>
  </diagram>
</mxfile>
